<svg xmlns="http://www.w3.org/2000/svg" xmlns:xlink="http://www.w3.org/1999/xlink" version="1.1" id="Layer_1" x="0px" y="0px" width="100px" height="100px" viewBox="0 0 100 100" enable-background="new 0 0 100 100" xml:space="preserve">
<path fill="#000000" d="M59.148,87.223l-10.524-0.751c0.372-4.874,1.693-24.65-1.029-28.539c-0.502-0.719-2.033-2.905-15.173-2.695  c-4.79,0.076-9.426,0.445-11.406,0.621c0.234-2.526,1.142-9.593,4.344-16.612c2.316-5.079,5.362-9.128,9.054-12.033  c2.053-1.616,4.317-2.879,6.771-3.788c0.006,1.5,0.053,5.02,0.362,8.651c0.853,10.029,2.868,11.149,3.53,11.517  c3.222,1.791,13.777,2.647,18.761,2.646c1.068,0,1.88-0.039,2.31-0.117c0.458-0.083,0.762-0.522,0.68-0.981  c-0.084-0.458-0.522-0.763-0.981-0.679c-2.008,0.366-16.528-0.443-19.95-2.344c-2.199-1.222-3.088-11.926-3.025-19.25  c2.37-0.698,4.905-1.084,7.594-1.158C51,26.94,55.432,31.034,60.8,31.034c5.728,0,10.388-4.66,10.388-10.388  c0-5.728-4.66-10.388-10.388-10.388c-5.519,0-10.044,4.326-10.367,9.766c-6.6,0.178-12.339,2.146-17.063,5.864  c-3.905,3.073-7.117,7.333-9.546,12.658c-4.107,9.006-4.551,17.836-4.568,18.208l-0.044,0.977l0.973-0.099  c0.059-0.006,6.027-0.606,12.264-0.706c11.049-0.178,13.307,1.322,13.764,1.976c0.604,0.863,1.579,4.015,1.32,15.43  c-0.15,6.601-0.652,12.791-0.658,12.852l-0.07,0.851l12.223,0.873c0.021,0.001,0.041,0.002,0.061,0.002  c0.438,0,0.809-0.339,0.841-0.784C59.963,87.66,59.613,87.257,59.148,87.223z M60.8,11.946c4.798,0,8.701,3.903,8.701,8.7  c0,4.798-3.903,8.701-8.701,8.701S52.1,25.444,52.1,20.646C52.1,15.849,56.002,11.946,60.8,11.946z"/>
<path fill="#000000" d="M36.446,82.55c-0.187,0-0.368,0.019-0.545,0.047c-0.084-0.028-0.173-0.047-0.267-0.047H25.207V62.206  l11.754-0.102c0.466-0.004,0.84-0.385,0.836-0.852c-0.004-0.463-0.381-0.836-0.843-0.836c-0.002,0-0.005,0-0.007,0l-22.681,0.197  L6.707,28.935c-0.108-0.453-0.563-0.733-1.017-0.625s-0.733,0.564-0.625,1.017l7.871,32.986l10.583-0.092v20.33h-9.817  c-0.035,0-0.068,0.006-0.101,0.01c-0.068-0.004-0.135-0.01-0.204-0.01c-1.921,0-3.483,1.563-3.483,3.484  c0,1.921,1.562,3.483,3.483,3.483c1.921,0,3.484-1.562,3.484-3.483c0-0.657-0.187-1.271-0.504-1.796h17.089  c-0.318,0.525-0.504,1.139-0.504,1.796c0,1.921,1.563,3.483,3.484,3.483c1.921,0,3.484-1.562,3.484-3.483  C39.93,84.113,38.367,82.55,36.446,82.55z M13.397,87.83c-0.99,0-1.796-0.805-1.796-1.795c0-0.991,0.806-1.796,1.796-1.796  s1.796,0.805,1.796,1.796C15.194,87.024,14.388,87.83,13.397,87.83z M36.446,87.83c-0.99,0-1.796-0.805-1.796-1.795  c0-0.991,0.806-1.796,1.796-1.796c0.991,0,1.796,0.805,1.796,1.796C38.242,87.024,37.437,87.83,36.446,87.83z"/>
<path fill="#000000" d="M94.089,50.226h-8.707c-0.045-0.085-0.102-0.165-0.178-0.232c-2.1-1.896-0.492-7.843,0.572-11.777  c0.507-1.876,0.908-3.358,0.943-4.329c0.102-2.743-2.167-4.213-3.601-4.697c2.428-6.749,4.184-13.507,4.202-13.575l0.195-0.755  l-5.363-1.851l-9.65,27.971l5.382,1.857l0.301-0.74c0.022-0.054,2.073-5.1,4.355-11.317c0.572,0.193,2.568,1.017,2.494,3.045  c-0.029,0.778-0.446,2.319-0.887,3.95c-1.1,4.07-2.558,9.472-0.879,12.451H54.375c-0.466,0-0.843,0.377-0.843,0.844  c0,0.466,0.377,0.844,0.843,0.844h39.714c0.466,0,0.844-0.378,0.844-0.844C94.933,50.603,94.555,50.226,94.089,50.226z   M76.92,40.719l-2.273-0.785l8.55-24.78l2.289,0.79c-0.532,1.966-2.073,7.481-4.047,12.931  C79.496,34.237,77.628,38.952,76.92,40.719z"/>
</svg>